<svg width="38" height="38" viewBox="0 0 38 38" fill="none" xmlns="http://www.w3.org/2000/svg">
<path fill-rule="evenodd" clip-rule="evenodd" d="M19 0.119019C29.349 0.119019 37.75 8.60444 37.75 19.0564C37.75 29.5086 29.349 37.994 19 37.994C8.65097 37.994 0.25 29.5086 0.25 19.0564C0.25 8.60444 8.65097 0.119019 19 0.119019ZM16.8084 11.4861C16.8084 11.0649 16.4432 10.7228 16.0475 10.7228H12.8819C12.4558 10.7228 12.1209 11.0649 12.1209 11.4861V26.5338C12.1209 26.9553 12.4558 27.2974 12.8819 27.2974H16.0475C16.4432 27.2974 16.8084 26.9553 16.8084 26.5338V11.4861ZM26.1834 11.4861C26.1834 11.0649 25.8486 10.7228 25.4225 10.7228H22.2569C21.8308 10.7228 21.4959 11.0649 21.4959 11.4861V26.5338C21.4959 26.9553 21.8308 27.2974 22.2569 27.2974H25.4225C25.8486 27.2974 26.1834 26.9553 26.1834 26.5338V11.4861Z" fill="#D9D9D9"/>
</svg>
