<svg width="17" height="17" viewBox="0 0 17 17" fill="none" xmlns="http://www.w3.org/2000/svg">
<path fill-rule="evenodd" clip-rule="evenodd" d="M4.20617 9.81979L4.20617 16.0788C4.20617 16.3886 3.96764 16.6403 3.63965 16.6403L1.31391 16.6403C1.01574 16.6403 0.777205 16.3886 0.777205 16.0788L0.777206 0.969273C0.777206 0.659484 1.01574 0.408112 1.31391 0.408112L3.63965 0.408112C3.96764 0.408112 4.20618 0.659485 4.20618 0.969273L4.20617 7.22828L15.5367 0.620354C15.805 0.464706 16.133 0.464706 16.4014 0.620354C16.6697 0.776 16.8486 1.0635 16.8486 1.37479C16.8486 4.65271 16.8486 12.3953 16.8486 15.6736C16.8486 15.9845 16.6697 16.272 16.4014 16.4277C16.133 16.5833 15.805 16.5834 15.5367 16.428L4.20617 9.81979Z" fill="white" fill-opacity="0.5"/>
</svg>
