<svg width="213" height="105" viewBox="0 0 213 105" fill="none" xmlns="http://www.w3.org/2000/svg">
<path d="M18.304 76.704C14.464 76.704 11.4133 75.9787 9.152 74.528C6.93333 73.0773 5.376 71.072 4.48 68.512C3.584 65.9093 3.136 62.9013 3.136 59.488V40.864C3.136 37.28 3.584 34.208 4.48 31.648C5.376 29.0453 6.93333 27.04 9.152 25.632C11.4133 24.224 14.464 23.52 18.304 23.52C22.016 23.52 24.9173 24.1387 27.008 25.376C29.1413 26.6133 30.6347 28.3627 31.488 30.624C32.384 32.8853 32.832 35.5093 32.832 38.496V42.848H22.592V37.984C22.592 36.7893 22.528 35.68 22.4 34.656C22.272 33.5893 21.9093 32.736 21.312 32.096C20.7573 31.4133 19.776 31.072 18.368 31.072C16.96 31.072 15.936 31.4133 15.296 32.096C14.656 32.7787 14.2507 33.6747 14.08 34.784C13.9093 35.8507 13.824 37.0453 13.824 38.368V61.92C13.824 63.3707 13.9307 64.6507 14.144 65.76C14.4 66.8267 14.848 67.6587 15.488 68.256C16.1707 68.8107 17.1307 69.088 18.368 69.088C19.7333 69.088 20.6933 68.768 21.248 68.128C21.8453 67.4453 22.208 66.5493 22.336 65.44C22.5067 64.3307 22.592 63.1573 22.592 61.92V56.864H32.832V61.152C32.832 64.1813 32.4053 66.8693 31.552 69.216C30.6987 71.52 29.2267 73.3547 27.136 74.72C25.0453 76.0427 22.1013 76.704 18.304 76.704ZM47.983 76.704C44.1857 76.704 41.1777 76.0213 38.959 74.656C36.7403 73.2907 35.1403 71.3493 34.159 68.832C33.2203 66.272 32.751 63.2213 32.751 59.68V40.352C32.751 36.8107 33.2203 33.7813 34.159 31.264C35.1403 28.7467 36.7403 26.8267 38.959 25.504C41.1777 24.1813 44.1857 23.52 47.983 23.52C51.823 23.52 54.8523 24.2027 57.071 25.568C59.3323 26.8907 60.9323 28.8107 61.871 31.328C62.8523 33.8027 63.343 36.8107 63.343 40.352V59.68C63.343 63.2213 62.8523 66.272 61.871 68.832C60.9323 71.3493 59.3323 73.2907 57.071 74.656C54.8523 76.0213 51.823 76.704 47.983 76.704ZM47.983 69.088C49.3483 69.088 50.351 68.7893 50.991 68.192C51.631 67.552 52.0577 66.72 52.271 65.696C52.4843 64.6293 52.591 63.4987 52.591 62.304V37.792C52.591 36.5973 52.4843 35.488 52.271 34.464C52.0577 33.44 51.631 32.6293 50.991 32.032C50.351 31.392 49.3483 31.072 47.983 31.072C46.703 31.072 45.743 31.392 45.103 32.032C44.463 32.6293 44.0363 33.44 43.823 34.464C43.6097 35.488 43.503 36.5973 43.503 37.792V62.304C43.503 63.4987 43.5883 64.6293 43.759 65.696C43.9723 66.72 44.399 67.552 45.039 68.192C45.679 68.7893 46.6603 69.088 47.983 69.088ZM64.634 76V24.16H71.994L83.514 51.168V24.16H92.218V76H85.178L73.658 47.328V76H64.634ZM94.1195 76L95.0155 24.16H106.216L112.616 56.864L119.464 24.16H130.28L131.176 76H123.496L122.664 40.864L116.072 76H109.48L102.568 40.608L101.864 76H94.1195ZM147.643 76.704C143.718 76.704 140.667 76.0427 138.491 74.72C136.315 73.3547 134.779 71.4133 133.883 68.896C133.03 66.336 132.603 63.2427 132.603 59.616V24.16H143.035V61.088C143.035 62.368 143.121 63.6267 143.291 64.864C143.505 66.1013 143.931 67.104 144.571 67.872C145.254 68.64 146.278 69.024 147.643 69.024C149.051 69.024 150.075 68.64 150.715 67.872C151.398 67.104 151.825 66.1013 151.995 64.864C152.166 63.6267 152.251 62.368 152.251 61.088V24.16H162.683V59.616C162.683 63.2427 162.235 66.336 161.339 68.896C160.486 71.4133 158.971 73.3547 156.795 74.72C154.619 76.0427 151.569 76.704 147.643 76.704Z" fill="white"/>
<rect x="167" y="42" width="33.6316" height="33.6667" rx="16.8158" fill="#3EFE71"/>
<rect x="183.816" y="53.2222" width="5.60527" height="5.61111" rx="2.80264" fill="black"/>
<rect x="172.605" y="53.2222" width="5.60527" height="5.61111" rx="2.80264" fill="black"/>
<path d="M3.80859 94.6279C3.80859 92.3662 4.41504 90.623 5.62793 89.3984C6.68262 88.332 8.02441 87.7988 9.65332 87.7988C11.833 87.7988 13.4268 88.5137 14.4346 89.9434C14.9912 90.7461 15.29 91.5518 15.3311 92.3604H12.624C12.4482 91.7393 12.2227 91.2705 11.9473 90.9541C11.4551 90.3916 10.7256 90.1104 9.75879 90.1104C8.77441 90.1104 7.99805 90.5088 7.42969 91.3057C6.86133 92.0967 6.57715 93.2188 6.57715 94.6719C6.57715 96.125 6.87598 97.2148 7.47363 97.9414C8.07715 98.6621 8.8418 99.0225 9.76758 99.0225C10.7168 99.0225 11.4404 98.7119 11.9385 98.0908C12.2139 97.7568 12.4424 97.2559 12.624 96.5879H15.3047C15.0703 98 14.4697 99.1484 13.5029 100.033C12.542 100.918 11.3086 101.36 9.80273 101.36C7.93945 101.36 6.47461 100.763 5.4082 99.5674C4.3418 98.3662 3.80859 96.7197 3.80859 94.6279ZM19.8546 99.2334C20.587 99.2334 21.1495 98.9727 21.5421 98.4512C21.9347 97.9297 22.131 97.1885 22.131 96.2275C22.131 95.2666 21.9347 94.5283 21.5421 94.0127C21.1495 93.4912 20.587 93.2305 19.8546 93.2305C19.1222 93.2305 18.5568 93.4912 18.1583 94.0127C17.7657 94.5283 17.5695 95.2666 17.5695 96.2275C17.5695 97.1885 17.7657 97.9297 18.1583 98.4512C18.5568 98.9727 19.1222 99.2334 19.8546 99.2334ZM24.7589 96.2275C24.7589 97.6338 24.3546 98.8379 23.546 99.8398C22.7374 100.836 21.5099 101.334 19.8634 101.334C18.2169 101.334 16.9894 100.836 16.1808 99.8398C15.3722 98.8379 14.9679 97.6338 14.9679 96.2275C14.9679 94.8447 15.3722 93.6465 16.1808 92.6328C16.9894 91.6191 18.2169 91.1123 19.8634 91.1123C21.5099 91.1123 22.7374 91.6191 23.546 92.6328C24.3546 93.6465 24.7589 94.8447 24.7589 96.2275ZM30.2493 91.1914C31.2395 91.1914 32.0481 91.4521 32.675 91.9736C33.3079 92.4893 33.6243 93.3477 33.6243 94.5488V101H31.0579V95.1729C31.0579 94.6689 30.9905 94.2822 30.8557 94.0127C30.6096 93.5205 30.1409 93.2744 29.4495 93.2744C28.5998 93.2744 28.0168 93.6348 27.7004 94.3555C27.5364 94.7363 27.4543 95.2227 27.4543 95.8145V101H24.9582V91.4375H27.3752V92.835C27.6975 92.3428 28.0022 91.9883 28.2893 91.7715C28.8049 91.3848 29.4582 91.1914 30.2493 91.1914ZM39.6332 91.1914C40.6234 91.1914 41.432 91.4521 42.0589 91.9736C42.6918 92.4893 43.0082 93.3477 43.0082 94.5488V101H40.4418V95.1729C40.4418 94.6689 40.3744 94.2822 40.2396 94.0127C39.9935 93.5205 39.5248 93.2744 38.8334 93.2744C37.9837 93.2744 37.4007 93.6348 37.0843 94.3555C36.9203 94.7363 36.8382 95.2227 36.8382 95.8145V101H34.3421V91.4375H36.7591V92.835C37.0814 92.3428 37.3861 91.9883 37.6732 91.7715C38.1888 91.3848 38.8421 91.1914 39.6332 91.1914ZM47.4878 93.2305C46.9077 93.2305 46.4565 93.4121 46.1343 93.7754C45.8179 94.1387 45.6186 94.6309 45.5366 95.252H49.4302C49.3891 94.5898 49.187 94.0889 48.8237 93.749C48.4663 93.4033 48.021 93.2305 47.4878 93.2305ZM47.4878 91.165C48.2846 91.165 49.0024 91.3145 49.6411 91.6133C50.2798 91.9121 50.8071 92.3838 51.2231 93.0283C51.5981 93.5967 51.8413 94.2559 51.9526 95.0059C52.0171 95.4453 52.0434 96.0781 52.0317 96.9043H45.4751C45.5102 97.8652 45.812 98.5391 46.3804 98.9258C46.7261 99.166 47.1421 99.2861 47.6284 99.2861C48.144 99.2861 48.563 99.1396 48.8852 98.8467C49.061 98.6885 49.2163 98.4688 49.3511 98.1875H51.9087C51.8442 98.7559 51.5483 99.333 51.021 99.9189C50.2007 100.851 49.0522 101.316 47.5757 101.316C46.3569 101.316 45.2817 100.924 44.3501 100.139C43.4184 99.3535 42.9526 98.0762 42.9526 96.3066C42.9526 94.6484 43.3716 93.377 44.2095 92.4922C45.0532 91.6074 46.146 91.165 47.4878 91.165ZM57.8297 94.8564C57.7828 94.499 57.6627 94.1768 57.4693 93.8896C57.1881 93.5029 56.7516 93.3096 56.1598 93.3096C55.316 93.3096 54.7389 93.7285 54.4283 94.5664C54.2643 95.0117 54.1822 95.6035 54.1822 96.3418C54.1822 97.0449 54.2643 97.6104 54.4283 98.0381C54.7271 98.835 55.2896 99.2334 56.1158 99.2334C56.7018 99.2334 57.1178 99.0752 57.3639 98.7588C57.61 98.4424 57.7594 98.0322 57.8121 97.5283H60.3697C60.3111 98.29 60.0357 99.0107 59.5436 99.6904C58.7584 100.786 57.5953 101.334 56.0543 101.334C54.5133 101.334 53.3795 100.877 52.6529 99.9629C51.9264 99.0488 51.5631 97.8623 51.5631 96.4033C51.5631 94.7568 51.9645 93.4766 52.7672 92.5625C53.5699 91.6484 54.6773 91.1914 56.0895 91.1914C57.2906 91.1914 58.2721 91.4609 59.0338 92C59.8014 92.5391 60.2555 93.4912 60.3961 94.8564H57.8297ZM59.5232 93.292V91.5078H60.8591V88.8359H63.3376V91.5078H64.8933V93.292H63.3376V98.3545C63.3376 98.7471 63.3874 98.9932 63.487 99.0928C63.5866 99.1865 63.8913 99.2334 64.4011 99.2334C64.4773 99.2334 64.5564 99.2334 64.6384 99.2334C64.7263 99.2275 64.8112 99.2217 64.8933 99.2158V101.088L63.7068 101.132C62.5232 101.173 61.7146 100.968 61.281 100.517C60.9997 100.229 60.8591 99.7871 60.8591 99.1895V93.292H59.5232ZM67.2871 93.292V91.5078H68.623V88.8359H71.1015V91.5078H72.6572V93.292H71.1015V98.3545C71.1015 98.7471 71.1513 98.9932 71.2509 99.0928C71.3505 99.1865 71.6552 99.2334 72.165 99.2334C72.2412 99.2334 72.3203 99.2334 72.4023 99.2334C72.4902 99.2275 72.5752 99.2217 72.6572 99.2158V101.088L71.4707 101.132C70.2871 101.173 69.4785 100.968 69.0449 100.517C68.7636 100.229 68.623 99.7871 68.623 99.1895V93.292H67.2871ZM77.9278 91.1738C78.5196 91.1738 79.0557 91.2764 79.5362 91.4814C80.0225 91.6865 80.421 92 80.7315 92.4219C80.9952 92.7793 81.1563 93.1484 81.2149 93.5293C81.2735 93.9043 81.3028 94.5195 81.3028 95.375V101H78.7452V95.1729C78.7452 94.6572 78.6573 94.2412 78.4815 93.9248C78.253 93.4795 77.8194 93.2568 77.1807 93.2568C76.5186 93.2568 76.0147 93.4795 75.669 93.9248C75.3292 94.3643 75.1593 94.9941 75.1593 95.8145V101H72.6632V88.0889H75.1593V92.668C75.5225 92.1113 75.9415 91.7246 76.4161 91.5078C76.8966 91.2852 77.4005 91.1738 77.9278 91.1738ZM87.2326 91.1914C87.2795 91.1914 87.3176 91.1943 87.3469 91.2002C87.382 91.2002 87.4553 91.2031 87.5666 91.209V93.7754C87.4084 93.7578 87.2678 93.7461 87.1447 93.7402C87.0217 93.7344 86.9221 93.7314 86.8459 93.7314C85.8381 93.7314 85.1613 94.0596 84.8156 94.7158C84.6223 95.085 84.5256 95.6533 84.5256 96.4209V101H82.0031V91.4199H84.3938V93.0898C84.7805 92.4512 85.1174 92.0146 85.4045 91.7803C85.8732 91.3877 86.4826 91.1914 87.2326 91.1914ZM91.721 99.2334C92.4534 99.2334 93.0159 98.9727 93.4085 98.4512C93.8011 97.9297 93.9974 97.1885 93.9974 96.2275C93.9974 95.2666 93.8011 94.5283 93.4085 94.0127C93.0159 93.4912 92.4534 93.2305 91.721 93.2305C90.9886 93.2305 90.4232 93.4912 90.0247 94.0127C89.6321 94.5283 89.4359 95.2666 89.4359 96.2275C89.4359 97.1885 89.6321 97.9297 90.0247 98.4512C90.4232 98.9727 90.9886 99.2334 91.721 99.2334ZM96.6253 96.2275C96.6253 97.6338 96.221 98.8379 95.4124 99.8398C94.6038 100.836 93.3763 101.334 91.7298 101.334C90.0833 101.334 88.8558 100.836 88.0472 99.8398C87.2386 98.8379 86.8343 97.6338 86.8343 96.2275C86.8343 94.8447 87.2386 93.6465 88.0472 92.6328C88.8558 91.6191 90.0833 91.1123 91.7298 91.1123C93.3763 91.1123 94.6038 91.6191 95.4124 92.6328C96.221 93.6465 96.6253 94.8447 96.6253 96.2275ZM99.3032 91.4199V97.1943C99.3032 97.7393 99.3676 98.1494 99.4965 98.4248C99.725 98.9111 100.173 99.1543 100.841 99.1543C101.697 99.1543 102.283 98.8086 102.599 98.1172C102.763 97.7422 102.845 97.2471 102.845 96.6318V91.4199H105.385V101H102.951V99.6465C102.927 99.6758 102.869 99.7637 102.775 99.9102C102.681 100.057 102.57 100.186 102.441 100.297C102.048 100.648 101.667 100.889 101.298 101.018C100.935 101.146 100.507 101.211 100.015 101.211C98.5971 101.211 97.642 100.701 97.1498 99.6816C96.8745 99.1191 96.7368 98.29 96.7368 97.1943V91.4199H99.3032ZM110.304 98.9434C110.89 98.9434 111.385 98.7236 111.79 98.2842C112.194 97.8389 112.396 97.1328 112.396 96.166C112.396 95.2578 112.203 94.5664 111.816 94.0918C111.435 93.6172 110.922 93.3799 110.278 93.3799C109.399 93.3799 108.793 93.793 108.459 94.6191C108.283 95.0586 108.195 95.6006 108.195 96.2451C108.195 96.8018 108.289 97.2969 108.476 97.7305C108.816 98.5391 109.425 98.9434 110.304 98.9434ZM109.68 91.1914C110.161 91.1914 110.58 91.2646 110.937 91.4111C111.546 91.6631 112.039 92.126 112.414 92.7998V91.4199H114.848V100.508C114.848 101.744 114.64 102.676 114.224 103.303C113.509 104.381 112.138 104.92 110.111 104.92C108.886 104.92 107.887 104.68 107.114 104.199C106.34 103.719 105.913 103.001 105.831 102.046H108.555C108.626 102.339 108.74 102.55 108.898 102.679C109.168 102.907 109.622 103.021 110.26 103.021C111.163 103.021 111.766 102.72 112.071 102.116C112.27 101.729 112.37 101.079 112.37 100.165V99.5498C112.129 99.96 111.872 100.268 111.596 100.473C111.098 100.854 110.451 101.044 109.654 101.044C108.423 101.044 107.439 100.613 106.701 99.752C105.968 98.8848 105.602 97.7129 105.602 96.2363C105.602 94.8125 105.957 93.6172 106.666 92.6504C107.375 91.6777 108.379 91.1914 109.68 91.1914ZM120.857 91.1738C121.449 91.1738 121.985 91.2764 122.466 91.4814C122.952 91.6865 123.35 92 123.661 92.4219C123.924 92.7793 124.086 93.1484 124.144 93.5293C124.203 93.9043 124.232 94.5195 124.232 95.375V101H121.674V95.1729C121.674 94.6572 121.587 94.2412 121.411 93.9248C121.182 93.4795 120.749 93.2568 120.11 93.2568C119.448 93.2568 118.944 93.4795 118.598 93.9248C118.258 94.3643 118.089 94.9941 118.089 95.8145V101H115.592V88.0889H118.089V92.668C118.452 92.1113 118.871 91.7246 119.345 91.5078C119.826 91.2852 120.33 91.1738 120.857 91.1738ZM139.054 91.209C139.476 91.209 139.892 91.291 140.302 91.4551C140.712 91.6191 141.084 91.9062 141.418 92.3164C141.687 92.6504 141.869 93.0605 141.963 93.5469C142.021 93.8691 142.051 94.3408 142.051 94.9619L142.033 101H139.467V94.9004C139.467 94.5371 139.408 94.2383 139.291 94.0039C139.068 93.5586 138.658 93.3359 138.06 93.3359C137.369 93.3359 136.892 93.623 136.628 94.1973C136.493 94.502 136.426 94.8682 136.426 95.2959V101H133.903V95.2959C133.903 94.7275 133.845 94.3145 133.727 94.0566C133.517 93.5938 133.103 93.3623 132.488 93.3623C131.773 93.3623 131.293 93.5938 131.047 94.0566C130.912 94.3203 130.845 94.7129 130.845 95.2344V101H128.305V91.4375H130.739V92.835C131.05 92.3369 131.343 91.9824 131.618 91.7715C132.104 91.3965 132.734 91.209 133.508 91.209C134.24 91.209 134.832 91.3701 135.283 91.6924C135.646 91.9912 135.922 92.375 136.109 92.8438C136.437 92.2812 136.845 91.8682 137.331 91.6045C137.847 91.3408 138.421 91.209 139.054 91.209ZM145.238 91.4199V97.1943C145.238 97.7393 145.303 98.1494 145.432 98.4248C145.66 98.9111 146.108 99.1543 146.776 99.1543C147.632 99.1543 148.218 98.8086 148.534 98.1172C148.698 97.7422 148.78 97.2471 148.78 96.6318V91.4199H151.32V101H148.886V99.6465C148.862 99.6758 148.804 99.7637 148.71 99.9102C148.616 100.057 148.505 100.186 148.376 100.297C147.983 100.648 147.603 100.889 147.233 101.018C146.87 101.146 146.442 101.211 145.95 101.211C144.532 101.211 143.577 100.701 143.085 99.6816C142.81 99.1191 142.672 98.29 142.672 97.1943V91.4199H145.238ZM154.077 97.9414C154.13 98.3867 154.244 98.7031 154.42 98.8906C154.731 99.2246 155.305 99.3916 156.143 99.3916C156.635 99.3916 157.025 99.3184 157.312 99.1719C157.605 99.0254 157.751 98.8057 157.751 98.5127C157.751 98.2314 157.634 98.0176 157.4 97.8711C157.165 97.7246 156.295 97.4727 154.789 97.1152C153.705 96.8457 152.941 96.5088 152.495 96.1045C152.05 95.7061 151.827 95.1318 151.827 94.3818C151.827 93.4971 152.173 92.7383 152.864 92.1055C153.562 91.4668 154.54 91.1475 155.8 91.1475C156.995 91.1475 157.968 91.3877 158.718 91.8682C159.474 92.3428 159.907 93.166 160.019 94.3379H157.514C157.479 94.0156 157.388 93.7607 157.241 93.5732C156.966 93.2334 156.497 93.0635 155.835 93.0635C155.29 93.0635 154.901 93.1484 154.666 93.3184C154.438 93.4883 154.323 93.6875 154.323 93.916C154.323 94.2031 154.446 94.4111 154.693 94.54C154.939 94.6748 155.809 94.9062 157.303 95.2344C158.299 95.4688 159.046 95.8232 159.544 96.2979C160.036 96.7783 160.282 97.3789 160.282 98.0996C160.282 99.0488 159.928 99.8252 159.219 100.429C158.516 101.026 157.426 101.325 155.949 101.325C154.444 101.325 153.33 101.009 152.61 100.376C151.895 99.7373 151.537 98.9258 151.537 97.9414H154.077ZM163.101 90.2773H160.561V87.9658H163.101V90.2773ZM160.561 91.4199H163.101V101H160.561V91.4199ZM169.637 94.8564C169.59 94.499 169.47 94.1768 169.277 93.8896C168.996 93.5029 168.559 93.3096 167.967 93.3096C167.123 93.3096 166.546 93.7285 166.236 94.5664C166.072 95.0117 165.99 95.6035 165.99 96.3418C165.99 97.0449 166.072 97.6104 166.236 98.0381C166.535 98.835 167.097 99.2334 167.923 99.2334C168.509 99.2334 168.925 99.0752 169.171 98.7588C169.417 98.4424 169.567 98.0322 169.62 97.5283H172.177C172.119 98.29 171.843 99.0107 171.351 99.6904C170.566 100.786 169.403 101.334 167.862 101.334C166.321 101.334 165.187 100.877 164.46 99.9629C163.734 99.0488 163.371 97.8623 163.371 96.4033C163.371 94.7568 163.772 93.4766 164.575 92.5625C165.377 91.6484 166.485 91.1914 167.897 91.1914C169.098 91.1914 170.079 91.4609 170.841 92C171.609 92.5391 172.063 93.4912 172.204 94.8564H169.637Z" fill="white"/>
</svg>
