<svg width="17" height="17" viewBox="0 0 17 17" fill="none" xmlns="http://www.w3.org/2000/svg">
<path fill-rule="evenodd" clip-rule="evenodd" d="M12.7396 7.22861V0.969627C12.7396 0.659838 12.9782 0.408142 13.3062 0.408142H15.6319C15.9301 0.408142 16.1686 0.659838 16.1686 0.969627V16.0791C16.1686 16.3889 15.9301 16.6403 15.6319 16.6403H13.3062C12.9782 16.6403 12.7396 16.3889 12.7396 16.0791V9.82012L1.40912 16.428C1.14077 16.5837 0.812779 16.5837 0.544425 16.428C0.276071 16.2724 0.097168 15.9849 0.097168 15.6736C0.097168 12.3957 0.097168 4.65307 0.097168 1.37485C0.097168 1.06386 0.276071 0.776353 0.544425 0.620706C0.812779 0.465059 1.14077 0.465036 1.40912 0.620382L12.7396 7.22861Z" fill="white" fill-opacity="0.5"/>
</svg>
