<svg width="17" height="17" viewBox="0 0 17 17" fill="none" xmlns="http://www.w3.org/2000/svg">
<path d="M4.69678 0.838135H13.1792C14.9708 0.838135 16.4722 2.38275 16.4722 4.34106V10.2014C16.472 12.1601 14.9703 13.7063 13.1792 13.7063H8.78662L9.58643 14.551L10.4673 15.4807C10.5956 15.6161 10.5956 15.8472 10.4673 15.9827C10.357 16.0988 10.1818 16.1009 10.0669 15.9807L7.64697 13.426L10.0688 10.8704C10.1836 10.7493 10.3563 10.7513 10.4663 10.8684L10.4673 10.8704C10.5797 10.989 10.5938 11.1785 10.5093 11.3147L10.4673 11.3694L9.58545 12.303L8.78857 13.1458H13.1792C14.7572 13.1458 15.9964 11.7994 15.9966 10.2014V4.34106C15.9966 2.7429 14.7573 1.39575 13.1792 1.39575H4.69678C3.1155 1.39575 1.87939 2.74335 1.87939 4.34106V10.2014C1.87957 11.799 3.1156 13.1458 4.69678 13.1458H4.94971V13.7063H4.69678C2.90274 13.7063 1.40105 12.1598 1.40088 10.2014V4.34106C1.40088 2.383 2.90217 0.838135 4.69678 0.838135Z" fill="white" fill-opacity="0.5" stroke="black"/>
</svg>
