<svg width="17" height="17" viewBox="0 0 17 17" fill="none" xmlns="http://www.w3.org/2000/svg">
<path fill-rule="evenodd" clip-rule="evenodd" d="M13.1215 13.9292C13.1506 13.9292 13.1769 13.9475 13.1875 13.9809C13.2007 14.0113 13.1929 14.0477 13.1718 14.072C12.9528 14.3241 12.5146 14.8282 12.5146 14.8282C12.2137 15.1744 12.2137 15.7361 12.5146 16.0823C12.8154 16.4285 13.3011 16.4285 13.6019 16.0823C13.6019 16.0823 15.5995 13.7866 16.13 13.1731C16.1643 13.1337 16.1828 13.079 16.1828 13.0243C16.1828 12.9697 16.1643 12.915 16.13 12.8755C15.5995 12.2621 13.6019 9.96629 13.6019 9.96629C13.3011 9.62011 12.8154 9.62011 12.5146 9.96629C12.2137 10.3125 12.2137 10.8743 12.5146 11.2205C12.5146 11.2205 12.9764 11.7519 13.2034 12.0131C13.2245 12.0374 13.2325 12.0738 13.2193 12.1042C13.2087 12.1376 13.1823 12.1558 13.1533 12.1558C12.7522 12.1558 11.8128 12.1527 11.8128 12.1527C11.4591 12.1527 11.1053 11.9554 10.7332 11.6669C10.2609 11.2964 9.78325 10.7741 9.29768 10.1668C9.29768 10.1668 9.01271 9.81144 8.86493 9.6262C8.84118 9.59584 8.80951 9.57763 8.77256 9.57763C8.73826 9.57459 8.70395 9.58974 8.6802 9.61707C8.46644 9.84482 7.95444 10.3854 7.74068 10.6131C7.71429 10.6405 7.69841 10.6769 7.69841 10.7164C7.69578 10.7559 7.70909 10.7953 7.73284 10.8257C7.88063 11.011 8.1656 11.3663 8.1656 11.3663C9.40328 12.912 10.6648 13.9232 11.8101 13.9232C11.8101 13.9232 12.7283 13.9262 13.1215 13.9292ZM13.1718 2.38055C13.1929 2.40484 13.2007 2.43825 13.1875 2.47165C13.1769 2.50202 13.1506 2.52325 13.1215 2.52325C12.7283 2.52325 11.8101 2.52628 11.8101 2.52628C11.0052 2.52628 10.1476 2.99701 9.29253 3.823C8.21846 4.86157 7.10464 6.48015 5.99627 8.10481C4.95651 9.62318 3.92483 11.1506 2.91937 12.1224C2.38894 12.6356 1.89 13.0061 1.39124 13.0061C1.39124 13.0061 0.567873 13.0061 0.243277 13.0061C0.169386 13.0061 0.111328 13.0729 0.111328 13.1549C0.111328 13.492 0.111328 14.2906 0.111328 14.6247C0.111328 14.6672 0.124688 14.7036 0.148439 14.734C0.174829 14.7613 0.206332 14.7765 0.243277 14.7765C0.462313 14.7765 0.881995 14.7765 0.881995 14.7765H1.39124C2.19877 14.7765 3.05396 14.3089 3.90899 13.4798C4.98306 12.4413 6.09671 10.8227 7.20773 9.19803C8.24485 7.67966 9.27917 6.15216 10.2846 5.1804C10.8151 4.66719 11.3113 4.29672 11.8101 4.29672H11.8128C11.8128 4.29672 12.7522 4.2937 13.1533 4.2937C13.1823 4.2937 13.2087 4.31493 13.2193 4.3453C13.2325 4.37567 13.2245 4.41211 13.2034 4.4364C12.9764 4.7006 12.5146 5.23206 12.5146 5.23206C12.2137 5.57825 12.2137 6.13699 12.5146 6.48318C12.8154 6.82936 13.3011 6.82936 13.6019 6.48318C13.6019 6.48318 15.5995 4.18738 16.13 3.57395C16.1643 3.53448 16.1828 3.4829 16.1828 3.4252C16.1828 3.37054 16.1643 3.31587 16.13 3.27639C15.5995 2.666 13.6019 0.367166 13.6019 0.367166C13.3011 0.0240143 12.8154 0.0240143 12.5146 0.367166C12.2137 0.713355 12.2137 1.27518 12.5146 1.62136C12.5146 1.62136 12.9528 2.12546 13.1718 2.38055ZM0.881995 3.44643H1.39124C1.83459 3.44643 2.27806 3.74401 2.74516 4.16612C3.33629 4.69755 3.93538 5.43856 4.54235 6.26455C4.54235 6.26455 4.81136 6.632 4.95387 6.82635C4.97498 6.85672 5.00945 6.87492 5.04376 6.87795C5.07807 6.88403 5.11221 6.86885 5.1386 6.84456C5.36027 6.62895 5.89071 6.11267 6.11502 5.89706C6.14141 5.86973 6.15733 5.83334 6.15997 5.79386C6.16261 5.75438 6.15201 5.71486 6.1309 5.68449C5.98839 5.49014 5.7167 5.12269 5.7167 5.12269C4.8907 3.99606 4.06725 3.02128 3.27028 2.41697C2.63428 1.93412 2.00084 1.67296 1.39124 1.67296H0.111328V3.44643H0.881995Z" fill="white" fill-opacity="0.5"/>
</svg>
